<svg xmlns="http://www.w3.org/2000/svg" xmlns:xlink="http://www.w3.org/1999/xlink" width="500" zoomAndPan="magnify" viewBox="0 0 375 374.999991" height="500" preserveAspectRatio="xMidYMid meet" version="1.0"><defs><clipPath id="56e72829d8"><path d="M 140 155 L 295.769531 155 L 295.769531 288.910156 L 140 288.910156 Z M 140 155 " clip-rule="nonzero"/></clipPath><clipPath id="53e488ce3f"><path d="M 215 208 L 295.769531 208 L 295.769531 214 L 215 214 Z M 215 208 " clip-rule="nonzero"/></clipPath><clipPath id="3606e1eb7b"><path d="M 79.019531 63.160156 L 221 63.160156 L 221 213 L 79.019531 213 Z M 79.019531 63.160156 " clip-rule="nonzero"/></clipPath></defs><g clip-path="url(#56e72829d8)"><path fill="#ffffff" d="M 218.039062 288.910156 C 175.40625 288.910156 140.726562 253.851562 140.726562 210.730469 C 140.726562 190.292969 148.457031 171.007812 162.472656 156.410156 C 163.328125 155.507812 164.75 155.484375 165.648438 156.34375 C 166.550781 157.199219 166.574219 158.640625 165.71875 159.519531 C 152.511719 173.285156 145.234375 191.464844 145.234375 210.707031 C 145.234375 251.328125 177.886719 284.355469 218.019531 284.355469 C 258.152344 284.355469 290.824219 251.304688 290.824219 210.707031 C 290.824219 209.46875 291.839844 208.453125 293.078125 208.453125 C 294.316406 208.453125 295.332031 209.46875 295.332031 210.707031 C 295.355469 253.851562 260.675781 288.910156 218.039062 288.910156 Z M 218.039062 288.910156 " fill-opacity="1" fill-rule="nonzero"/></g><path fill="#ffffff" d="M 271.109375 159.339844 C 270.523438 159.339844 269.9375 159.113281 269.507812 158.664062 C 255.785156 144.761719 237.511719 137.101562 218.039062 137.101562 C 207.089844 137.101562 196.566406 139.511719 186.742188 144.242188 C 185.613281 144.785156 184.261719 144.3125 183.722656 143.183594 C 183.179688 142.058594 183.65625 140.707031 184.78125 140.164062 C 195.214844 135.117188 206.414062 132.574219 218.039062 132.574219 C 238.726562 132.574219 258.128906 140.707031 272.707031 155.484375 C 273.585938 156.363281 273.5625 157.808594 272.683594 158.664062 C 272.257812 159.136719 271.671875 159.339844 271.109375 159.339844 Z M 271.109375 159.339844 " fill-opacity="1" fill-rule="nonzero"/><g clip-path="url(#53e488ce3f)"><path fill="#ffffff" d="M 293.078125 213.003906 L 218.039062 213.003906 C 216.800781 213.003906 215.789062 211.992188 215.789062 210.753906 C 215.789062 209.511719 216.800781 208.5 218.039062 208.5 L 293.078125 208.5 C 294.316406 208.5 295.332031 209.511719 295.332031 210.753906 C 295.332031 211.992188 294.316406 213.003906 293.078125 213.003906 Z M 293.078125 213.003906 " fill-opacity="1" fill-rule="nonzero"/></g><g clip-path="url(#3606e1eb7b)"><path fill="#ffffff" d="M 217.839844 212.800781 C 216.980469 212.800781 216.191406 212.328125 215.808594 211.496094 L 149.875 71.066406 L 83.964844 211.496094 C 83.425781 212.621094 82.09375 213.117188 80.96875 212.578125 C 79.839844 212.058594 79.34375 210.707031 79.886719 209.582031 L 147.847656 64.78125 C 148.59375 63.203125 151.183594 63.203125 151.925781 64.78125 L 219.890625 209.582031 C 220.429688 210.707031 219.933594 212.058594 218.808594 212.578125 C 218.492188 212.734375 218.152344 212.800781 217.839844 212.800781 Z M 217.839844 212.800781 " fill-opacity="1" fill-rule="nonzero"/></g></svg>